<svg xmlns="http://www.w3.org/2000/svg" viewBox="0 0 1200 900" width="1200" height="900" role="img" aria-label="Placeholder: Brand graphics">
  <rect width="1200" height="900" fill="#F4F1E4"/>
  <rect x="36" y="36" width="1128" height="828" fill="#FAF8F0" stroke="#7A8A5F" stroke-width="4" stroke-dasharray="26 19" rx="30"/>
  <g transform="translate(600 321) scale(2.36)">
    <path d="M-30 14 C -12 -6, 10 -16, 30 -14" fill="none" stroke="#7A8A5F" stroke-width="2.5" stroke-linecap="round"/>
    <path d="M30 -14 c 7 -6, 17 -7, 24 -2 c -6 7, -16 8, -24 2 z" fill="#B8A44F"/>
    <path d="M6 -12 c -1 -10, 4 -18, 12 -22 c 2 10, -3 18, -12 22 z" fill="#7A8A5F"/>
    <path d="M-14 2 c -10 -2, -16 -10, -17 -20 c 10 2, 16 10, 17 20 z" fill="#7A8A5F" opacity="0.75"/>
  </g>
  <text x="600" y="471" text-anchor="middle" font-family="Georgia, 'Times New Roman', serif" font-size="36" letter-spacing="8.6" fill="#4A5A35">CLIENT PHOTO</text>
  <text x="600" y="561" text-anchor="middle" font-family="Georgia, 'Times New Roman', serif" font-size="56" font-style="italic" fill="#2F4023">Brand graphics</text>
  <text x="600" y="634" text-anchor="middle" font-family="Arial, Helvetica, sans-serif" font-size="32" fill="#4A5A35">Replace with gallery-5.jpg - 1200 x 900 px (4:3)</text>
</svg>
