<svg xmlns="http://www.w3.org/2000/svg" viewBox="0 0 1600 1000" width="1600" height="1000" role="img" aria-label="Placeholder: Warm caregiver / care-setting photo">
  <rect width="1600" height="1000" fill="#F4F1E4"/>
  <rect x="40" y="40" width="1520" height="920" fill="#FAF8F0" stroke="#7A8A5F" stroke-width="5" stroke-dasharray="29 21" rx="33"/>
  <g transform="translate(800 357) scale(2.62)">
    <path d="M-30 14 C -12 -6, 10 -16, 30 -14" fill="none" stroke="#7A8A5F" stroke-width="2.5" stroke-linecap="round"/>
    <path d="M30 -14 c 7 -6, 17 -7, 24 -2 c -6 7, -16 8, -24 2 z" fill="#B8A44F"/>
    <path d="M6 -12 c -1 -10, 4 -18, 12 -22 c 2 10, -3 18, -12 22 z" fill="#7A8A5F"/>
    <path d="M-14 2 c -10 -2, -16 -10, -17 -20 c 10 2, 16 10, 17 20 z" fill="#7A8A5F" opacity="0.75"/>
  </g>
  <text x="800" y="524" text-anchor="middle" font-family="Georgia, 'Times New Roman', serif" font-size="40" letter-spacing="9.5" fill="#4A5A35">CLIENT PHOTO</text>
  <text x="800" y="624" text-anchor="middle" font-family="Georgia, 'Times New Roman', serif" font-size="62" font-style="italic" fill="#2F4023">Warm caregiver / care-setting photo</text>
  <text x="800" y="705" text-anchor="middle" font-family="Arial, Helvetica, sans-serif" font-size="36" fill="#4A5A35">Replace with hero-home.jpg - 1600 x 1000 px (16:10)</text>
</svg>
