<svg xmlns="http://www.w3.org/2000/svg" viewBox="0 0 800 800" width="800" height="800" role="img" aria-label="Placeholder: Team member headshot">
  <rect width="800" height="800" fill="#F4F1E4"/>
  <rect x="32" y="32" width="736" height="736" fill="#FAF8F0" stroke="#7A8A5F" stroke-width="4" stroke-dasharray="23 17" rx="27"/>
  <g transform="translate(400 286) scale(2.1)">
    <path d="M-30 14 C -12 -6, 10 -16, 30 -14" fill="none" stroke="#7A8A5F" stroke-width="2.5" stroke-linecap="round"/>
    <path d="M30 -14 c 7 -6, 17 -7, 24 -2 c -6 7, -16 8, -24 2 z" fill="#B8A44F"/>
    <path d="M6 -12 c -1 -10, 4 -18, 12 -22 c 2 10, -3 18, -12 22 z" fill="#7A8A5F"/>
    <path d="M-14 2 c -10 -2, -16 -10, -17 -20 c 10 2, 16 10, 17 20 z" fill="#7A8A5F" opacity="0.75"/>
  </g>
  <text x="400" y="419" text-anchor="middle" font-family="Georgia, 'Times New Roman', serif" font-size="32" letter-spacing="7.6" fill="#4A5A35">CLIENT PHOTO</text>
  <text x="400" y="499" text-anchor="middle" font-family="Georgia, 'Times New Roman', serif" font-size="50" font-style="italic" fill="#2F4023">Team member headshot</text>
  <text x="400" y="564" text-anchor="middle" font-family="Arial, Helvetica, sans-serif" font-size="29" fill="#4A5A35">Replace with team-1.jpg - 800 x 800 px (1:1)</text>
</svg>
